# xmcd CD database file
#
# Track frame offsets:
#	150
#	2854
#	20110
#	29827
#	44550
#	63020
#	74866
#	77670
#	94247
#	108947
#	128436
#	150673
#
# Disc length: 2385 seconds
#
# Revision: 0
# Processed by: cddbd v1.5.2PL0 Copyright (c) Steve Scherf et al.
# Submitted via: CDex 1.51
#
DISCID=a0094f0c
DTITLE=Drift Effect - Be Something
DYEAR=2007
DGENRE=Salsa
TTITLE0=___
TTITLE1=Shake
TTITLE2=Systematic
TTITLE3=The Clutter
TTITLE4=Indecision
TTITLE5=Legend of a Native Woman
TTITLE6=Listen to Me
TTITLE7=On a Hill
TTITLE8=Not for Good
TTITLE9=No Rides
TTITLE10=Solstice
TTITLE11=Be Something
EXTD=YEAR: 2007
EXTT0=
EXTT1=
EXTT2=
EXTT3=
EXTT4=
EXTT5=
EXTT6=
EXTT7=
EXTT8=
EXTT9=
EXTT10=
EXTT11=
PLAYORDER=
